# xmcd CD database file
#
# Track frame offsets:
#	150
#	45267
#	81517
#	118074
#	154029
#	189949
#	251239
#	286167
#
# Disc length: 4216 seconds
#
# Revision: 1
# Processed by: cddbd v1.5.2PL0 Copyright (c) Steve Scherf et al.
# Submitted via: CDex 1.70beta2
#
DISCID=65107608
DTITLE=Perico Sambeat con Javier Colina, Marc Miralta, Gerardo Nunez, Miguel Poveda - Flamenco Bigband
DYEAR=2007
DGENRE=Jazz
TTITLE0=CAUCE
TTITLE1=NIDO DEL AIRE
TTITLE2=OLHAIL
TTITLE3=NOCTURNO
TTITLE4=TIO PETILA
TTITLE5=SOLEDAD SONORA
TTITLE6=COMO LO OYES
TTITLE7=GUAJIRA PARA DUKE
EXTD=YEAR: 2007
EXTT0=
EXTT1=
EXTT2=
EXTT3=
EXTT4=
EXTT5=
EXTT6=
EXTT7=
PLAYORDER=
